<svg width="150" height="151" viewBox="0 0 150 151" fill="none" xmlns="http://www.w3.org/2000/svg">
<path d="M121.881 60.9405C121.881 74.3884 117.516 86.8109 110.162 96.8895L147.253 134.01C150.916 137.673 150.916 143.62 147.253 147.283C143.591 150.945 137.643 150.945 133.981 147.283L96.8895 110.162C86.8109 117.545 74.3884 121.881 60.9405 121.881C27.2767 121.881 0 94.6042 0 60.9405C0 27.2767 27.2767 0 60.9405 0C94.6042 0 121.881 27.2767 121.881 60.9405ZM60.9405 103.13C66.4809 103.13 71.967 102.039 77.0857 99.9186C82.2044 97.7983 86.8553 94.6907 90.773 90.773C94.6907 86.8553 97.7983 82.2044 99.9186 77.0857C102.039 71.967 103.13 66.4809 103.13 60.9405C103.13 55.4001 102.039 49.9139 99.9186 44.7952C97.7983 39.6766 94.6907 35.0256 90.773 31.108C86.8553 27.1903 82.2044 24.0826 77.0857 21.9624C71.967 19.8422 66.4809 18.7509 60.9405 18.7509C55.4001 18.7509 49.9139 19.8422 44.7952 21.9624C39.6766 24.0826 35.0256 27.1903 31.108 31.108C27.1903 35.0256 24.0826 39.6766 21.9624 44.7952C19.8422 49.9139 18.7509 55.4001 18.7509 60.9405C18.7509 66.4809 19.8422 71.967 21.9624 77.0857C24.0826 82.2044 27.1903 86.8553 31.108 90.773C35.0256 94.6907 39.6766 97.7983 44.7952 99.9186C49.9139 102.039 55.4001 103.13 60.9405 103.13Z" fill="white"/>
<path fill-rule="evenodd" clip-rule="evenodd" d="M61.5385 14C35.8039 14 15 35.0832 15 61.1661C15 82.0155 28.3298 99.6641 46.8217 105.91C49.1337 106.38 49.9805 104.896 49.9805 103.647C49.9805 102.553 49.9043 98.8054 49.9043 94.9002C36.9585 97.712 34.2626 89.2777 34.2626 89.2777C32.1821 83.8114 29.0995 82.4065 29.0995 82.4065C24.8623 79.5171 29.4081 79.5171 29.4081 79.5171C34.1083 79.8296 36.5746 84.3586 36.5746 84.3586C40.7346 91.5423 47.438 89.5125 50.1349 88.2629C50.5197 85.2173 51.7533 83.109 53.0632 81.9379C42.7379 80.8444 31.8744 76.784 31.8744 58.6668C31.8744 53.5129 33.7225 49.2962 36.6508 46.0168C36.1888 44.8457 34.5703 40.0033 37.1137 33.5221C37.1137 33.5221 41.0432 32.2725 49.9034 38.3636C53.6967 37.3312 57.6088 36.806 61.5385 36.8015C65.468 36.8015 69.4737 37.3487 73.1726 38.3636C82.0337 32.2725 85.9632 33.5221 85.9632 33.5221C88.5067 40.0033 86.8872 44.8457 86.4252 46.0168C89.4307 49.2962 91.2025 53.5129 91.2025 58.6668C91.2025 76.784 80.339 80.7658 69.9366 81.9379C71.6323 83.4214 73.0955 86.2322 73.0955 90.6836C73.0955 97.0086 73.0192 102.085 73.0192 103.646C73.0192 104.896 73.8671 106.38 76.1781 105.911C94.67 99.6631 108 82.0155 108 61.1661C108.076 35.0832 87.1959 14 61.5385 14Z" fill="white"/>
</svg>
